/* XPM */
static char *aprwx_sl3jj[] = {
/* columns rows colors chars-per-pixel */
"64 64 136 2 ",
"   c #000000",
".  c #080707",
"X  c #070708",
"o  c #0C0C0C",
"O  c #100F0E",
"+  c #0F1010",
"@  c #141413",
"#  c #181717",
"$  c #191817",
"%  c #1C1B1B",
"&  c #201F1E",
"*  c #21201F",
"=  c #242423",
"-  c #282726",
";  c #282827",
":  c #2C2B2A",
">  c #312F2E",
",  c #2F302E",
"<  c #31302F",
"1  c #333332",
"2  c #3A3635",
"3  c #393837",
"4  c #3B3B3C",
"5  c #3C3C3C",
"6  c #3D3D3C",
"7  c #3E3E3D",
"8  c #3F3F3D",
"9  c #3E3E3E",
"0  c #3B3B3A",
"q  c #403D3C",
"w  c #423F3D",
"e  c #403F3E",
"r  c #413E3D",
"t  c #3F403E",
"y  c #41403D",
"u  c #41403E",
"i  c #40403F",
"p  c #41413F",
"a  c #40403F",
"s  c #414140",
"d  c #424240",
"f  c #424241",
"g  c #434241",
"h  c #434341",
"j  c #424242",
"k  c #434242",
"l  c #434342",
"z  c #434343",
"x  c #454140",
"c  c #444341",
"v  c #474241",
"b  c #444442",
"n  c #444443",
"m  c #454543",
"M  c #464543",
"N  c #444444",
"B  c #454544",
"V  c #454545",
"C  c #464644",
"Z  c #474644",
"A  c #464645",
"S  c #474645",
"D  c #474746",
"F  c #454443",
"G  c #484745",
"H  c #494746",
"J  c #494544",
"K  c #484846",
"L  c #494846",
"P  c #494847",
"I  c #474748",
"U  c #484848",
"Y  c #494948",
"T  c #494949",
"R  c #4A4948",
"E  c #4A4A48",
"W  c #4B4A48",
"Q  c #4A4A49",
"!  c #4B4B4A",
"~  c #4C4B49",
"^  c #4D4B4A",
"/  c #4C4B4B",
"(  c #4C4C4B",
")  c #4D4D4B",
"_  c #4D4D4C",
"`  c #4E4E4C",
"'  c #4F4F4D",
"]  c #4F4F4E",
"[  c #4D4C4B",
"{  c #504F4D",
"}  c #504F4F",
"|  c #514F4D",
" . c #50504E",
".. c #51504E",
"X. c #51504E",
"o. c #505050",
"O. c #525250",
"+. c #525251",
"@. c #525252",
"#. c #535352",
"$. c #525253",
"%. c #545251",
"&. c #545351",
"*. c #545453",
"=. c #565553",
"-. c #555555",
";. c #565654",
":. c #565655",
">. c #575755",
",. c #565656",
"<. c #575756",
"1. c #535351",
"2. c #595554",
"3. c #585856",
"4. c #5A5957",
"5. c #595A57",
"6. c #585856",
"7. c #595959",
"8. c #5A5A58",
"9. c #5B5A59",
"0. c #5B5B5A",
"q. c #5B5B5B",
"w. c #5C5C5A",
"e. c #5D5D5B",
"r. c #5D5D5C",
"t. c #5D5D5D",
"y. c #5E5E5C",
"u. c #5C5B5A",
"i. c #605F5D",
"p. c #60605E",
"a. c #62605E",
"s. c #626260",
"d. c #636363",
"f. c #656463",
"g. c #686867",
"h. c #6B6B6B",
/* pixels */
"                                                                                                                                ",
"                                                                      X X X X                                                   ",
"                                                                  X o @ # $ $ # O + o X                                         ",
"                                                          X o o @ # % ; : 1 1 : < ; & % o                                       ",
"                                                          @ @ @ * % = < 1 4 4 $. .T 3 3 * .                                     ",
"                                                        X o @ # * - , j : j -.t.B ` w. .1                                       ",
"                                                        X o @ $ * - = : 6 B ` t ! w.3.p.0 O                                     ",
"                                                          @ @ # % : : : ! i 3 t.a.W ` P 1 o                                     ",
"                                                        X o + # - = : 1 4 3 3 o.T ` $.B P o                                     ",
"                                                        X + o # % - 4 3 3 I j o.B 7.B z 2.=                                     ",
"                                                        X o + % % * , 1 - = - = < t B -.P =                                     ",
"                                                      X X o # % # ; = % % < j I -.j 3. .3.1                                     ",
"                                                      X o + @ % % = % o 1 I j 4 P p X.y.a.1                                     ",
"                                                      X @ # @ = = o o ; = @ @ X o @ i 3.W 3                                     ",
"                                                        X $ % @ @ o * % X X   X o   o 1 ..6 .                                   ",
"                                                          o * * % # @ o X   o @ $ * o + X.p                                     ",
"                                                        X o $ % * % o     X @ & 1 c ! : 6 1 X                                   ",
"                                                          + $ @ @ @       @ : 1 ` t.t.X.6 c o                                   ",
"                                                          + % % $ O     @ - > j t.-.` ` 9.P o                                   ",
"                                                          o = * $ @ . o % < ! $.7.B f.2.3 0 .                                   ",
"                                                            $ - = = $ $ = 6 $.c 7.` 7.$.) :                                     ",
"                                                            X % : : % = 1 0 * * : 1 -.-.) r                                     ",
"                                                              o : - ; ; % o .     X 1 c 0 W X                                   ",
"                                                              o : 1 : # .           O $ : 3                                     ",
"                                                              X 1 : : o X X X X o & > 3 1 i o                                   ",
"                                                              o = : ; * o $ + # > % v g.H 2                                     ",
"                                                              o ; < 1 : ; ; : : q r ^ | ! 1                                     ",
"                                                                4 3 3 3 z 1 z ! J %.R %.h.3                                     ",
"                                                                : ; 1 , < 3 P ) w w v w ! :                                     ",
"                                                                - 3 = = , i c 6 > q q | f.:                                     ",
"                                                              o - 1 1 6 < 1 3 1 > > < a.$.1                                     ",
"                                                              o : : 1 3 1 ) > > ^ W | 2.c =                                     ",
"                                                              X : I 4 j I j _ < 2 y v i.i.:                                     ",
"                                                              X : 9 1 1 1 1 T j 1 y ^ 2.J &                                     ",
"                                                              X : 3 1 : : : 3 4 J < ....y &                                     ",
"                                                              @ - 1 j 4 9 , : - J p ..W J &                                     ",
"                                                              o 1 < : : 1 3 1 = @ > * 2 ! #                                     ",
"                                                              X - ; @ o 3 B 3 3 % o @ 2 w.O                                     ",
"                                                                X X = 1 6  . .} + $ % 6 z                                       ",
"                                                                    , 3 ` B ! : . < = 0 W                                       ",
"                                                                    @ , B o.3   o 6 - ! X.                                      ",
"                                                              X X   X + o # o   1 B * $.0                                       ",
"                                                              # #   X o X     o >.2 : i %                                       ",
"                                                            X = = X   + o o $ 3 P : r X.O                                       ",
"                                                            . o X X X o @ % 3 _ i = A P                                         ",
"                                                                X o o @ - % r } : 1 w.,                                         ",
"                                                              # % : : 3 j 3 9 4 % i &.*                                         ",
"                                                            o @ % : = 2 < 2 6 < 2 P P .                                         ",
"                                                              X . X $ = 1 3 6 : t ! :                                           ",
"                                                                  X ; 1 t i 1 0 6 B @                                           ",
"                                                                  . 1 A 3  .i  .c 1                                             ",
"                                                                  # 4 ` 6 t 1 c c #                                             ",
"                                                                  @ 4 ! 1 1 0 ! 1                                               ",
"                                                                  X 1 6 3 1 c , o                                               ",
"                                                                  X 1 B 1 0 z $                                                 ",
"                                                                  o j 9 3 0 1 X                                                 ",
"                                                                  o 3 : 4 9 +                                                   ",
"                                                                  @ 1 1 j -                                                     ",
"                                                                  @ 1 I B X                                                     ",
"                                                                  @ B I @                                                       ",
"                                                                  % j $                                                         ",
"                                                                  @ @                                                           ",
"                                                                                                                                ",
"                                                                                                                                "
};
