/* XPM */
static char *aqpje_ozbpc[] = {
/* columns rows colors chars-per-pixel */
"64 64 149 2 ",
"   c #000000",
".  c #010101",
"X  c #020202",
"o  c #030303",
"O  c #040404",
"+  c #050505",
"@  c #060606",
"#  c #070707",
"$  c #080808",
"%  c #090909",
"&  c #0A0A0A",
"*  c #0B0B0B",
"=  c #0C0C0C",
"-  c #0D0D0D",
";  c #0E0E0E",
":  c #0F0F0F",
">  c #101010",
",  c #111111",
"<  c #121212",
"1  c #131313",
"2  c #141414",
"3  c #151515",
"4  c #161616",
"5  c #181818",
"6  c #191919",
"7  c #1F1F1F",
"8  c #202020",
"9  c #222222",
"0  c #232323",
"q  c #242424",
"w  c #252525",
"e  c #2A2A2A",
"r  c #2B2B2B",
"t  c #2C2C2C",
"y  c #303030",
"u  c #333333",
"i  c #343434",
"p  c #363636",
"a  c #373737",
"s  c #383838",
"d  c #393939",
"f  c #3A3A3A",
"g  c #3D3D3D",
"h  c #3E3E3E",
"j  c #3F3F3F",
"k  c #414141",
"l  c #434343",
"z  c #454545",
"x  c #474747",
"c  c #484848",
"v  c #4B4B4B",
"b  c #4E4E4E",
"n  c #4F4F4F",
"m  c #545454",
"M  c #555555",
"N  c #575757",
"B  c #5A5A5A",
"V  c #5D5D5D",
"C  c #616161",
"Z  c #636363",
"A  c #656565",
"S  c #666666",
"D  c #696969",
"F  c #6A6A6A",
"G  c #6C6C6C",
"H  c #6F6F6F",
"J  c #727272",
"K  c #737373",
"L  c #747474",
"P  c #757575",
"I  c #767676",
"U  c #787878",
"Y  c #797979",
"T  c #7A7A7A",
"R  c #7B7B7B",
"E  c #7E7E7E",
"W  c #868686",
"Q  c #878787",
"!  c #8B8B8B",
"~  c #8E8E8E",
"^  c #909090",
"/  c #929292",
"(  c #959595",
")  c #969696",
"_  c #989898",
"`  c #9B9B9B",
"'  c #9D9D9D",
"]  c #9E9E9E",
"[  c #9F9F9F",
"{  c #A2A2A2",
"}  c #A4A4A4",
"|  c #A5A5A5",
" . c #A7A7A7",
".. c #A8A8A8",
"X. c #AAAAAA",
"o. c #ABABAB",
"O. c #ADADAD",
"+. c #AFAFAF",
"@. c #B0B0B0",
"#. c #B2B2B2",
"$. c #B4B4B4",
"%. c #B7B7B7",
"&. c #B9B9B9",
"*. c #BCBCBC",
"=. c #BDBDBD",
"-. c #BEBEBE",
";. c #C0C0C0",
":. c #C3C3C3",
">. c #C4C4C4",
",. c #C5C5C5",
"<. c #C7C7C7",
"1. c #C8C8C8",
"2. c #C9C9C9",
"3. c #CBCBCB",
"4. c #CFCFCF",
"5. c #D4D4D4",
"6. c #D5D5D5",
"7. c #D6D6D6",
"8. c #D7D7D7",
"9. c #DADADA",
"0. c #DBDBDB",
"q. c #DCDCDC",
"w. c #DDDDDD",
"e. c #DFDFDF",
"r. c #E0E0E0",
"t. c #E1E1E1",
"y. c #E2E2E2",
"u. c #E3E3E3",
"i. c #E4E4E4",
"p. c #E5E5E5",
"a. c #EAEAEA",
"s. c #EBEBEB",
"d. c #ECECEC",
"f. c #EDEDED",
"g. c #EEEEEE",
"h. c #EFEFEF",
"j. c #F1F1F1",
"k. c #F2F2F2",
"l. c #F3F3F3",
"z. c #F5F5F5",
"x. c #F6F6F6",
"c. c #F7F7F7",
"v. c #F8F8F8",
"b. c #F9F9F9",
"n. c #FAFAFA",
"m. c #FBFBFB",
"M. c #FCFCFC",
"N. c #FDFDFD",
"B. c #FFFFFF",
/* pixels */
"                                                                                                                                ",
"                                                                                                                                ",
"                                                                                                                                ",
"                                                                                                                                ",
"                                                                                                                                ",
"                                                                                                                                ",
"                                                                                                                                ",
"                                                                                                                                ",
"                                                                                                                                ",
"                                                                                                                                ",
"                                                                                                                                ",
"                                                                                                                                ",
"                                                      8 *             @ 6                                                       ",
"                                                    @ F @               N :                                                     ",
"                                                    w 0.1               3.p                                                     ",
"                                                @   C B.B   @         j B.P   @                                                 ",
"                                                    &.B.3.            +.B.3.                                                    ",
"                                                  * t.B.B.G     @   b B.B.f.3                                                   ",
"                                                    :.B.B.f.w     1 0.B.B.5.                                                    ",
"                                                     .B.v.B.-.:    .B.v.B.$.                                                    ",
"                                                @   W B.z.B.6.f y ,.B.v.B.`                                                     ",
"                                                @   V B.B.B.m *   r z.B.B.R   @                                                 ",
"                                                    r B.B.-.@ t y    .B.B.c   @                                                 ",
"                                                    : t.B.! W B.v.j R B.z.8                                                     ",
"                                                    @ ,.z.$.f.{ +.,.^ t.t.*                                                     ",
"                                                    @ #.4. .N   y e.#.,.3.*                                                     ",
"                                                    @ X.+.f.` 6.{ ~ 5.#.$.:                                                     ",
"                                                      ' X.B.,.` j.t.$.'  .*                                                     ",
"                                                      ^ &.v.( $.( t.B. .(                                                       ",
"                                                  @   ~ v.e. .t.v.z.B.6.'   @                                                   ",
"                                                      E B.0.3.j.,.v.B.a.^                                                       ",
"                                                  @   A B.e.P f.v.z.B.f.K   @                                                   ",
"                                                  @   c B.i.A A t.B.B.a.b   @                                                   ",
"                                                      t B.z.N y j.B.B.t.8                                                       ",
"                                                      3 f.B.G   -.B.B.e.*                                                       ",
"                                                        6.B.R   R v.B.a.1                                                       ",
"                                                        -.B.N @ F f.B.v.8                                                       ",
"                                                    @   ' B.p * B i.B.B.p   @                                                   ",
"                                                    @   P v.8 @ b t.B.B.c                                                       ",
"                                                        N e.3 * k i.B.B.V   @                                                   ",
"                                                        f +.: * t e.B.B.P   @                                                   ",
"                                                        8 K 1 * * &.B.B.R                                                       ",
"                                                        : f 3 *   K B.B.j   @                                                   ",
"                                                          6 6     r ,.-.:                                                       ",
"                                                          1 3     @ K A                                                         ",
"                                                          1 1       k z                                                         ",
"                                                          : :       * :                                                         ",
"                                                          * *                                                                   ",
"                                                          @ @                                                                   ",
"                                                                                                                                ",
"                                                                                                                                ",
"                                                                                                                                ",
"                                                                                                                                ",
"                                                                                                                                ",
"                                                                                                                                ",
"                                                                                                                                ",
"                                                                                                                                ",
"                                                                                                                                ",
"                                                                                                                                ",
"                                                                                                                                ",
"                                                                                                                                ",
"                                                                                                                                ",
"                                                                                                                                ",
"                                                                                                                                "
};
